<svg xmlns="http://www.w3.org/2000/svg" width="1831.62" height="2679.338" viewBox="0 0 1831.62 2679.338">
  <g id="Group_421" data-name="Group 421" transform="translate(-2308.616 7070.549) rotate(-90)">
    <g id="Group_419" data-name="Group 419">
      <path id="Path_660" data-name="Path 660" d="M4747.942,2611.224l8.261-6.326,45.142,58.96-8.261,6.325-22.943-29.965-28.831,22.074,22.942,29.966-8.261,6.324-45.141-58.959,8.26-6.325,21.083,27.536,28.832-22.074Z"/>
      <path id="Path_661" data-name="Path 661" d="M4831.9,2605.52l-32.371,22.051,1.035,1.518q6.834,10.032,15.135,12.707a16.831,16.831,0,0,0,15.383-2.149,21.093,21.093,0,0,0,6.783-7.707,22.616,22.616,0,0,0,2.625-10.55l1.413-.1q.33,16.066-11.808,24.335-9.189,6.261-19.367,4t-17.071-12.376q-7.291-10.7-5.452-21.771t11.7-17.786q8.767-5.971,17.3-3.766T4831.9,2605.52Zm-33.205,20.645,24.616-16.769q-5.062-8.151-11.441-10.9a11.566,11.566,0,0,0-11.773.924q-5.483,3.734-5.8,11.05T4798.693,2626.165Z"/>
      <path id="Path_662" data-name="Path 662" d="M4856.336,2626.825l-42.648-67.164,6.2-7.558.344-.219,44.289,69.747Z"/>
      <path id="Path_663" data-name="Path 663" d="M4874.633,2615.333l-41.447-67.91,6.328-7.448.348-.212,43.042,70.522Z"/>
      <path id="Path_664" data-name="Path 664" d="M4876.984,2582.346q-6.283-11.094-3.327-21.912t13.429-16.751q10.293-5.832,20.658-2.852t16.6,13.984q6.234,11.006,3.278,21.825t-13.43,16.751q-10.3,5.832-20.632,2.9T4876.984,2582.346Zm38.607-21.869q-5.982-10.562-13.875-14.766t-14.459-.484q-6.657,3.769-7.03,12.422t5.508,19.037q5.985,10.562,13.85,14.72t14.434.441q6.656-3.771,7.08-12.334T4915.591,2560.477Z"/>
      <path id="Path_665" data-name="Path 665" d="M5170.483,2478.811l-9.791,3.518-28.889-61.7-2.166,67.869-.384.138-46.5-47.671,8.385,31.779q2.523,10.041,5.7,18.871a121.392,121.392,0,0,0,4.922,11.888l-5.759,2.069q-1.431-11.517-6.814-32.234l-9.278-35.469-3.733-3.752-.1-.288,10.56-3.795,41.588,43.042,1.8-58.633,8.831-3.174Z"/>
      <path id="Path_666" data-name="Path 666" d="M5222.375,2460.331l.182.585a15.756,15.756,0,0,1-7.328,4.949q-7.11,2.213-9.935-4.814-5.752,10.017-15.686,13.1-6.135,1.909-10.916-.236a11.534,11.534,0,0,1-6.446-7.5q-2.06-6.623,2.466-12.678t14.517-10.337l5.662-2.4,3.61-1.443-1.727-5.552q-2.514-8.083-6.678-11.169t-10.787-1.023q-7.6,2.362-12.792,10.387l-1.21-.8a32.888,32.888,0,0,1,7.018-8.859,26.834,26.834,0,0,1,9.588-5.064q18.116-5.636,23.841,12.772l7.756,24.934q1.394,4.48,2.627,5.7t4.448.219Q5220.876,2461.01,5222.375,2460.331Zm-17.754-1.1-5.666-18.212q-11,4.811-15.519,9.687a10.849,10.849,0,0,0-2.519,11.306q1.483,4.771,4.932,6.584a9.785,9.785,0,0,0,7.733.478Q5200.4,2466.953,5204.621,2459.23Z"/>
      <path id="Path_667" data-name="Path 667" d="M5243.994,2400.179l-.7,8.039a13.7,13.7,0,0,0-5.731.344,12.124,12.124,0,0,0-6.426,4.46,17.119,17.119,0,0,0-3.3,8.031l10.542,37.405-9.327,2.628-14.249-50.561,7.991-5.113.393-.11,3.652,12.959a26.005,26.005,0,0,1,4.188-11.46,14.73,14.73,0,0,1,8.19-5.911A19.749,19.749,0,0,1,5243.994,2400.179Z"/>
      <path id="Path_668" data-name="Path 668" d="M5300.817,2404.737l8.816,35.016-9.3,2.341-8.865-35.213a25.3,25.3,0,0,0-4.667-9.765q-3.248-4.125-10.666-2.258-7.916,1.994-13.465,10.859l10.858,43.126-9.3,2.341-19.425-77.153,8.155-5.209.4-.1,8.841,35.114q6.612-10.918,17.1-13.561Q5296.11,2386.043,5300.817,2404.737Z"/>
      <path id="Path_669" data-name="Path 669" d="M5364.242,2425.209l.13.6a15.758,15.758,0,0,1-7.727,4.3q-7.277,1.587-9.482-5.657-6.6,9.482-16.762,11.7-6.278,1.37-10.854-1.181a11.533,11.533,0,0,1-5.773-8.032q-1.477-6.775,3.555-12.416t15.357-9.042l5.849-1.9,3.721-1.126-1.239-5.679q-1.806-8.271-5.687-11.705t-10.658-1.955q-7.772,1.7-13.643,9.242l-1.136-.9a32.872,32.872,0,0,1,7.759-8.218,26.821,26.821,0,0,1,9.99-4.216q18.535-4.046,22.646,14.789l5.567,25.511q1,4.586,2.124,5.906t4.413.6Q5362.69,2425.757,5364.242,2425.209Zm-17.593-2.634-4.066-18.635q-11.377,3.842-16.3,8.308a10.849,10.849,0,0,0-3.488,11.045q1.066,4.884,4.344,6.986a9.788,9.788,0,0,0,7.663,1.147Q5341.775,2429.9,5346.649,2422.575Z"/>
      <path id="Path_670" data-name="Path 670" d="M5415.878,2389.619q2.369,12.219-3.809,21.973t-16.746,11.509q-11.134,2.065-19.555-3.635l-4.463,7.26-.4.074-14.583-78.627,8.468-4.683.4-.074,6.529,35.2q6.358-9.894,16.289-11.735a20.979,20.979,0,0,1,17.761,4.59Q5413.7,2377.886,5415.878,2389.619Zm-10.063,2.8q-2.157-11.632-7.619-17.312t-12.583-4.357q-8.325,1.544-13.411,10.475l6.1,32.9a17.339,17.339,0,0,0,7.051,6.42,13.963,13.963,0,0,0,8.768,1.123q7.318-1.356,10.6-9.384T5405.815,2392.419Z"/>
      <path id="Path_671" data-name="Path 671" d="M5473.206,2406.558l.094.6a15.755,15.755,0,0,1-7.979,3.811q-7.36,1.134-9.114-6.233-7.172,9.054-17.453,10.637-6.351.978-10.761-1.851a11.528,11.528,0,0,1-5.264-8.373q-1.056-6.855,4.316-12.173t15.888-8.073l5.956-1.537,3.784-.893-.886-5.747q-1.291-8.365-4.951-12.034t-10.517-2.61q-7.863,1.212-14.189,8.38l-1.078-.97a32.86,32.86,0,0,1,8.253-7.722,26.824,26.824,0,0,1,10.231-3.589q18.751-2.891,21.688,16.163l3.977,25.806q.717,4.638,1.755,6.026t4.366.875C5471.523,2407.023,5472.151,2406.859,5473.206,2406.558Zm-17.394-3.718-2.907-18.851q-11.592,3.129-16.783,7.282a10.851,10.851,0,0,0-4.165,10.808q.762,4.941,3.9,7.242a9.793,9.793,0,0,0,7.578,1.619Q5450.492,2409.853,5455.812,2402.84Z"/>
      <path id="Path_672" data-name="Path 672" d="M5671.838,2317.711l10.4-.431,3.07,74.193-10.4.43-1.559-37.708-36.282,1.5,1.56,37.708-10.4.43-3.069-74.192,10.4-.43,1.433,34.65,36.281-1.5Z"/>
      <path id="Path_673" data-name="Path 673" d="M5694.051,2364.631q-.138-12.749,7.682-20.79t19.855-8.169q11.831-.128,19.461,7.492t7.765,20.267q.136,12.648-7.683,20.687t-19.855,8.17q-11.832.127-19.461-7.441T5694.051,2364.631Zm44.367-.477q-.13-12.137-5-19.633t-12.422-7.416q-7.65.082-12.161,7.476t-4.383,19.326q.131,12.138,5.005,19.582t12.421,7.365q7.65-.082,12.162-7.374T5738.418,2364.154Z"/>
      <path id="Path_674" data-name="Path 674" d="M5757.892,2391.106l1.049-79.553,9.322-2.937.408.005-1.09,82.613Z"/>
      <path id="Path_675" data-name="Path 675" d="M5824.822,2390.367l-.019.612a15.757,15.757,0,0,1-8.544,2.276q-7.443-.238-7.811-7.8-8.715,7.579-19.113,7.244-6.421-.205-10.236-3.8a11.53,11.53,0,0,1-3.633-9.2q.222-6.932,6.482-11.171t17.1-5.012l6.137-.415,3.883-.181.187-5.812q.272-8.46-2.653-12.739t-9.856-4.5q-7.952-.256-15.488,5.625l-.882-1.15a32.854,32.854,0,0,1,9.533-6.072,26.838,26.838,0,0,1,10.717-1.646q18.963.609,18.344,19.877l-.839,26.1q-.151,4.69.615,6.245t4.131,1.664C5823.083,2390.515,5823.73,2390.469,5824.822,2390.367Zm-16.414-6.855.613-19.064q-11.97.942-17.837,4.07a10.846,10.846,0,0,0-6.082,9.857q-.162,5,2.5,7.836a9.789,9.789,0,0,0,7.151,2.985Q5801.889,2389.427,5808.408,2383.512Z"/>
      <path id="Path_676" data-name="Path 676" d="M5981.326,2369.471q2.3-16.984,15.172-26.268t29.387-6.639q16.245,2.4,25.378,14.215t6.656,28.566q-2.3,16.982-15.171,26.267t-29.388,6.639q-16.247-2.4-25.378-14.216T5981.326,2369.471Zm65.128,9.314q2.415-16.347-3.646-27.656t-17.969-13.069a23.244,23.244,0,0,0-20.885,7.018q-8.778,8.808-11.163,24.952-2.415,16.347,3.7,27.663t18.221,13.107q11.906,1.759,20.633-7.056T6046.454,2378.785Z"/>
      <path id="Path_677" data-name="Path 677" d="M6061.365,2418.736l13.914-78.334,9.674-1.389.4.071-14.449,81.347Z"/>
      <path id="Path_678" data-name="Path 678" d="M6127.5,2428.91l-.119.6a15.763,15.763,0,0,1-8.8.848q-7.3-1.452-6.43-8.974-9.837,6.051-20.04,4.02-6.3-1.256-9.476-5.422a11.527,11.527,0,0,1-2.08-9.669q1.354-6.8,8.221-9.96t17.692-2.149l6.121.595,3.861.456,1.135-5.7q1.653-8.3-.533-13t-8.987-6.053q-7.8-1.553-16.2,3.017l-.681-1.28a32.872,32.872,0,0,1,10.4-4.431,26.819,26.819,0,0,1,10.842.13q18.606,3.7,14.845,22.609l-5.1,25.61q-.915,4.6-.414,6.262t3.8,2.316C6125.759,2428.771,6126.4,2428.832,6127.5,2428.91Zm-15.072-9.447,3.722-18.707q-11.964-1.029-18.262,1.1a10.849,10.849,0,0,0-7.614,8.729q-.975,4.9,1.189,8.141a9.792,9.792,0,0,0,6.565,4.114Q6105.027,2424.232,6112.427,2419.463Zm-1.354-54.35-.6-.639,10.766-15.953,10.5,2.089Z"/>
      <path id="Path_679" data-name="Path 679" d="M6335.562,2468.413a17.1,17.1,0,0,1-12.382,11.65q-9.412,2.644-23.262-1.925l-22.764-7.508,23.259-70.52,23.345,7.7q11.818,3.9,16.692,10.285a14.622,14.622,0,0,1,2.287,14.233,14.92,14.92,0,0,1-8.308,9.235,26.342,26.342,0,0,1-14.268,1.9l-.063.193q9.2,3.68,13.548,10.376A15.684,15.684,0,0,1,6335.562,2468.413Zm-11.3-2.223q2.619-7.941-.449-14.271T6312.9,2443l-14.142-4.665-10.99,33.322a23.549,23.549,0,0,0,4.295,1.954q4.2,1.6,5.458,2.015Q6318.832,2482.656,6324.266,2466.19Zm-3.441-57.629-11.043-3.642-10.511,31.869,12.5,4.121a14.72,14.72,0,0,0,12.319-.877,17.156,17.156,0,0,0,7.838-10.089q2.364-7.167-.445-12.981T6320.825,2408.561Z"/>
      <path id="Path_680" data-name="Path 680" d="M6343.651,2464.595q4.473-11.938,14.667-16.617t21.464-.456q11.08,4.152,15.447,14.011t-.07,21.7q-4.437,11.845-14.631,16.522t-21.464.455q-11.081-4.152-15.464-13.962T6343.651,2464.595Zm41.551,15.565q4.257-11.365,2.416-20.117t-8.909-11.4q-7.164-2.685-14.039,2.583t-11.061,16.442q-4.258,11.369-2.4,20.069t8.928,11.351q7.164,2.683,14-2.488T6385.2,2480.16Z"/>
      <path id="Path_681" data-name="Path 681" d="M6450.392,2496.8l-13.982,33.29-8.934-3.752,14.061-33.479a25.287,25.287,0,0,0,2.133-10.61q-.119-5.249-7.172-8.212-7.526-3.159-17.192.634l-17.222,41-8.934-3.753,20.342-48.432,9.624,1.056.376.158-3.4,8.087q12.085-4.548,21.68-.519Q6457.858,2479.026,6450.392,2496.8Z"/>
      <path id="Path_682" data-name="Path 682" d="M6426.073,2551.049l.133-1.283a14.509,14.509,0,0,0,11.372-2.242q5.343-3.516,8.708-10.948l22.383-49.433,9.591,1.32.372.168-23.224,51.292q-3.87,8.547-12.08,11.1A29.447,29.447,0,0,1,6426.073,2551.049Zm51.633-72.242-3.458-9.18,9.18-3.458,3.457,9.18Z"/>
      <path id="Path_683" data-name="Path 683" d="M6475.534,2518.368q5.6-11.454,16.194-15.133t21.409,1.607q10.63,5.194,14.031,15.427t-2.151,21.6q-5.555,11.364-16.149,15.041t-21.409-1.606q-10.632-5.195-14.054-15.381T6475.534,2518.368Zm39.865,19.48q5.33-10.905,4.336-19.792t-7.775-12.2q-6.873-3.357-14.222,1.226t-12.587,15.306q-5.329,10.906-4.313,19.746t7.8,12.154q6.872,3.358,14.177-1.134T6515.4,2537.848Z"/>
      <path id="Path_684" data-name="Path 684" d="M6565.217,2584.146l-1.538,7.524-9.34-1.829,1.732-9.16.1-.179q-12.1,4.1-21.688-1.116-15.319-8.335-6.157-25.18l16.524-30.374,9.469,2.017.359.194-17.938,32.974a25.963,25.963,0,0,0-3.236,10.431q-.36,5.145,6.359,8.8a16.882,16.882,0,0,0,7.993,1.851,26.959,26.959,0,0,0,9.436-1.66l20.082-36.915,9.47,2.017.358.2Z"/>
      <path id="Path_685" data-name="Path 685" d="M6624.813,2566.783l-6.3,5.038a13.706,13.706,0,0,0-4.2-3.912,12.127,12.127,0,0,0-7.662-1.576,17.14,17.14,0,0,0-8.09,3.15l-19.809,33.435-8.337-4.939,26.776-45.194,9.213,2.258.351.208-6.862,11.584a26,26,0,0,1,11.185-4.873,14.735,14.735,0,0,1,9.93,1.851A19.757,19.757,0,0,1,6624.813,2566.783Z"/>
      <path id="Path_686" data-name="Path 686" d="M6804.6,2675.062l7.877,6.8-48.513,56.219-7.877-6.8,24.656-28.573-27.491-23.723-24.656,28.573-7.876-6.8,48.511-56.219,7.877,6.8-22.657,26.256,27.491,23.722Z"/>
      <path id="Path_687" data-name="Path 687" d="M6806.8,2776.431l-.429.437a15.751,15.751,0,0,1-7.831-4.1q-5.319-5.212-.473-11.032-11.545-.315-18.974-7.6-4.592-4.5-4.968-9.723a11.529,11.529,0,0,1,3.549-9.232q4.853-4.954,12.331-3.84t15.984,7.88l4.8,3.845,2.982,2.5,4.07-4.153q5.924-6.047,6.666-11.176t-4.213-9.982q-5.682-5.569-15.211-6.338l.13-1.443a32.868,32.868,0,0,1,11.127,1.978,26.865,26.865,0,0,1,9.006,6.039q13.551,13.28.058,27.048l-18.275,18.651q-3.286,3.352-3.773,5.015t1.916,4.02Q6805.494,2775.433,6806.8,2776.431Zm-7.449-16.154,13.349-13.624q-9.453-7.4-15.888-9.07a10.847,10.847,0,0,0-11.148,3.143q-3.5,3.568-3.458,7.463a9.785,9.785,0,0,0,3.245,7.037Q6790.552,2760.221,6799.353,2760.277Z"/>
      <path id="Path_688" data-name="Path 688" d="M6809.146,2782.9l57.934-54.53,8.59,4.662.279.3-60.161,56.628Z"/>
      <path id="Path_689" data-name="Path 689" d="M6823.776,2798.657l59.27-53.075,8.472,4.874.271.3-61.549,55.116Z"/>
      <path id="Path_690" data-name="Path 690" d="M6856.832,2795.024q9.9-8.03,21.062-6.9t18.739,10.477q7.454,9.189,6.226,19.9t-11.05,18.681q-9.824,7.967-20.982,6.839t-18.74-10.477q-7.453-9.192-6.266-19.871T6856.832,2795.024Zm27.948,34.462q9.426-7.644,12.271-16.123t-1.912-14.341q-4.82-5.94-13.414-4.88t-17.865,8.578q-9.427,7.645-12.23,16.092t1.952,14.307q4.818,5.942,13.334,4.945T6884.78,2829.486Z"/>
      <path id="Path_691" data-name="Path 691" d="M6995.243,3008.791l10.233,25.788-23.8,9.442a47.68,47.68,0,0,1-19.312-23.5q-6.658-16.782-1.213-30.574t21.753-20.263q15.853-6.511,30.2-.078t20.329,22.057a39.343,39.343,0,0,1,2.863,15.928,32.665,32.665,0,0,1-3.649,14.451l-6.146-3.048a32.355,32.355,0,0,0,6.391-13.619,24.431,24.431,0,0,0-1.315-13.964,22.916,22.916,0,0,0-16.41-14.393q-11.934-3.113-27.388,3.021-15.057,5.752-21.734,17.129t-1.788,23.15q4.138,10.43,12.647,15.283l23.323-9.254-6.282-15.834Z"/>
      <path id="Path_692" data-name="Path 692" d="M6997.494,3097.059l-6.484,4.114-5.164-7.993,7.8-5.111.2-.054q-11.352-5.866-14.249-16.388-4.633-16.815,13.853-21.909l33.336-9.185,5.121,8.217.109.394-36.188,9.97a25.99,25.99,0,0,0-9.757,4.91q-3.954,3.311-1.921,10.687a16.869,16.869,0,0,0,4.213,7.038,27,27,0,0,0,7.745,5.643l40.513-11.163,5.121,8.216.109.394Z"/>
      <path id="Path_693" data-name="Path 693" d="M7000.913,3138.448l-1.048,1.032q-6.078-6.2-7.409-13.114-2.509-13.02,11.212-15.665l38.46-7.412-1.486-7.712,1.7-.328,1.91,7.215,18.86,6.233.077.4-17.027,3.281,3.3,17.127-2.454-.877-3.05-15.825-38.26,7.374a18.838,18.838,0,0,0-7.041,2.81q-2.918,2.121-1.912,7.329A17.306,17.306,0,0,0,7000.913,3138.448Z"/>
      <path id="Path_694" data-name="Path 694" d="M7032.813,3184.624l-4.521-38.906-1.823.212q-12.059,1.4-18.279,7.514a16.831,16.831,0,0,0-5.232,14.624,21.117,21.117,0,0,0,3.681,9.585,22.635,22.635,0,0,0,8.13,7.219l-.569,1.3q-14.387-7.161-16.081-21.749-1.282-11.044,5.442-19.013t18.881-9.382q12.867-1.5,21.818,5.27t10.326,18.618q1.224,10.536-4.69,17.077T7032.813,3184.624Zm-2.888-38.993,3.437,29.585q9.571-.7,14.968-5.076t4.643-10.86q-.767-6.587-7.1-10.265T7029.925,3145.631Z"/>
      <path id="Path_695" data-name="Path 695" d="M7039.585,3241.113l-36.1.885-.237-9.686,36.3-.89a25.3,25.3,0,0,0,10.553-2.4q4.739-2.259,4.552-9.907-.2-8.158-7.622-15.424l-44.459,1.089-.237-9.686,52.514-1.287,2.981,9.212.01.407-8.77.215q9.1,9.164,9.357,19.565Q7058.856,3240.641,7039.585,3241.113Z"/>
      <path id="Path_696" data-name="Path 696" d="M7029.559,3252.1l3.36.2-1.279,21.893-3.361-.2Z"/>
      <path id="Path_697" data-name="Path 697" d="M7002.324,3309.269l-1.306.675q-3.968-7.728-3.19-14.721,1.463-13.179,15.352-11.638l38.928,4.32.867-7.806,1.723.191-.314,7.457,16.165,11.543-.045.405-17.234-1.912-1.923,17.336-2.085-1.565,1.778-16.018-38.727-4.3a18.854,18.854,0,0,0-7.558.6q-3.414,1.16-4,6.432A17.321,17.321,0,0,0,7002.324,3309.269Z"/>
      <path id="Path_698" data-name="Path 698" d="M6990.937,3358.452l-.6-.113a15.755,15.755,0,0,1-.939-8.792q1.378-7.319,8.91-6.522-6.153-9.774-4.225-20,1.191-6.315,5.325-9.531a11.536,11.536,0,0,1,9.649-2.179q6.814,1.286,10.043,8.121t2.328,17.668l-.532,6.127-.417,3.867,5.713,1.076q8.319,1.567,13-.665t5.959-9.049q1.474-7.819-3.18-16.169l1.272-.694a32.839,32.839,0,0,1,4.536,10.351,26.832,26.832,0,0,1-.018,10.844q-3.513,18.643-22.458,15.074l-25.66-4.835q-4.613-.868-6.266-.349t-2.277,3.826C6991.057,3356.71,6991,3357.356,6990.937,3358.452Zm9.292-15.168,18.745,3.531q.9-11.971-1.285-18.25a10.849,10.849,0,0,0-8.806-7.523q-4.912-.925-8.128,1.271a9.791,9.791,0,0,0-4.047,6.607Q6995.387,3335.935,7000.229,3343.284Z"/>
      <path id="Path_699" data-name="Path 699" d="M6969.728,3406.3q-7.95-2.246-11.077-11.82t.119-21.058q2.717-9.623,8.431-14.843t12-3.448a15.505,15.505,0,0,1,6.133,3.429l.018,5.94-.111.393a21.793,21.793,0,0,0-6.919-3.651,12.426,12.426,0,0,0-11,1.61q-4.816,3.356-6.979,11.013-2.743,9.719-.727,16.647t8.1,8.648q8.049,2.274,12.466-10.364l5.334-15.134q3.832-11.319,11.293-9.211,4.906,1.386,7.062,9.52l.623,2.3q7.708-8.531,18.408-5.506a17.013,17.013,0,0,1,11.3,9.71,23.116,23.116,0,0,1,.926,16.424q-2.272,8.049-7.725,12.339,5.655,7,3.353,15.15l-7.6-3.1a21.369,21.369,0,0,0,2.688-5.388,9.685,9.685,0,0,0,.22-5.661,17.852,17.852,0,0,1-26.1-7.423q-3.4-7.479-.877-16.412a26.639,26.639,0,0,1,4.247-8.657l-.862-2.575q-1.161-3.4-3.614-4.095-3.437-.969-5.768,5.79l-5.556,15.92Q6981.6,3409.654,6969.728,3406.3Zm50.778-26.678q-7.36-2.079-12.855-.079a11.226,11.226,0,0,0-5.06,17.543q3.564,4.449,11.025,6.558t12.953.108a11.141,11.141,0,0,0,5-17.508Q7027.966,3381.731,7020.506,3379.624Z"/>
      <path id="Path_700" data-name="Path 700" d="M6889.153,3588.832l-.112.171-4.641-5.379,28.788-43.7.34.224,37.464,74.03,3.479-5.282q11.784-17.886,14.124-29.782l.112-.17,4.693,4.558-27.834,42.247-.339-.225-37.409-74.113-4.433,6.729Q6891.6,3576.031,6889.153,3588.832Z"/>
      <path id="Path_701" data-name="Path 701" d="M6852.413,3628.745l3.256-8.942,8.252,2.982q-1.98-11.67,4.225-19.764a21.011,21.011,0,0,1,16.236-8.441q10.215-.588,19.607,6.611,10,7.407,11.984,18.823t-4.757,19.872a21.622,21.622,0,0,1-13.574,8.488l23.639,18.118-3.218,9.229-.248.323-58.208-44.612Zm13.493-4.694,26.635,20.414a17.393,17.393,0,0,0,9.426.026,13.7,13.7,0,0,0,7.314-4.931q4.653-6.072,1.739-14.089t-12.55-15.4q-9.473-7.26-17.259-7.831a13.341,13.341,0,0,0-12.316,5.339Q6863.93,3614.054,6865.906,3624.051Z"/>
      <path id="Path_702" data-name="Path 702" d="M6866.227,3693.014l-3.844-7.1a13.707,13.707,0,0,0,4.594-3.444,12.118,12.118,0,0,0,2.9-7.263,17.133,17.133,0,0,0-1.669-8.521l-29.4-25.408,6.335-7.332,39.747,34.345-3.852,8.67-.267.308-10.187-8.8a26.008,26.008,0,0,1,2.818,11.871,14.727,14.727,0,0,1-3.578,9.445A19.725,19.725,0,0,1,6866.227,3693.014Z"/>
      <path id="Path_703" data-name="Path 703" d="M6794.1,3693.474l-.444-.422a15.753,15.753,0,0,1,3.981-7.9q5.128-5.4,11.022-.644.136-11.55,7.3-19.091,4.425-4.661,9.643-5.118a11.528,11.528,0,0,1,9.288,3.4q5.028,4.776,4.032,12.27t-7.63,16.1l-3.772,4.858-2.447,3.022,4.216,4q6.138,5.829,11.278,6.491t9.916-4.368q5.48-5.769,6.1-15.308l1.446.107a32.886,32.886,0,0,1-1.8,11.157,26.854,26.854,0,0,1-5.9,9.1q-13.066,13.755-27.044.48l-18.932-17.982q-3.4-3.233-5.075-3.694t-3.989,1.979Q6795.078,3692.148,6794.1,3693.474Zm16.035-7.7,13.83,13.136q7.257-9.567,8.822-16.028a10.85,10.85,0,0,0-3.316-11.1q-3.624-3.442-7.517-3.342a9.793,9.793,0,0,0-6.984,3.355Q6810.057,3676.973,6810.139,3685.773Z"/>
      <path id="Path_704" data-name="Path 704" d="M6800.422,3758.661l-4.288,4.076q-3.868-12.507-11.1-31.665l-9.452-25.634.518-.493,55.744,23.848-7.54,7.169-42.11-18.092,4.519,12.451Q6794.066,3750.348,6800.422,3758.661Z"/>
      <path id="Path_705" data-name="Path 705" d="M6761.369,3725.956l2.25,4.934a23.686,23.686,0,0,0-19.861,5.738q-4.546,3.94-5.381,8.509a9.181,9.181,0,0,0,2.173,8.037,9,9,0,0,0,6.616,3.04q3.511-.077,10.691-2.381l4.3-1.428a81.806,81.806,0,0,1,8.485-2.358q8.929-1.533,14.074,4.4a13.091,13.091,0,0,1,3.044,11.533q-1.231,6.6-7.63,12.146a34.8,34.8,0,0,1-16.141,8.318l-2.06-4.558q10.792.771,17.96-5.441,4.01-3.474,4.656-7.476a8.31,8.31,0,0,0-2.024-7.086,7.579,7.579,0,0,0-4.727-2.653,14.753,14.753,0,0,0-4.818.126,74,74,0,0,0-7.572,2.243l-4.219,1.361a59.675,59.675,0,0,1-8.263,2.3q-9.087,1.662-14.5-4.58a14.214,14.214,0,0,1-3.375-12.462q1.3-7.067,8.547-13.344a43.822,43.822,0,0,1,8.846-5.912A27.717,27.717,0,0,1,6761.369,3725.956Z"/>
      <path id="Path_706" data-name="Path 706" d="M6702.7,3776.354l-1.4-.445q2.652-8.271,8.144-12.672,10.348-8.292,19.086,2.612l24.5,30.562,6.128-4.912,1.085,1.353-5.491,5.055,3.283,19.59-.318.256-10.845-13.53-13.609,10.908-.369-2.58,12.575-10.079-24.368-30.4a18.857,18.857,0,0,0-5.772-4.917q-3.236-1.591-7.374,1.727A17.328,17.328,0,0,0,6702.7,3776.354Z"/>
      <path id="Path_707" data-name="Path 707" d="M6696.646,3842.328l-4.76,3.512q-2.287-12.892-7.084-32.8l-6.195-26.61.575-.424,52.35,30.588-8.373,6.177-39.536-23.184,2.938,12.917Q6691.375,3833.288,6696.646,3842.328Z"/>
      <path id="Path_708" data-name="Path 708" d="M6622.578,3838.3l-5.945-4.861,5.963-7.418,7.3,5.793.114.17q2-12.621,11.072-18.681,14.5-9.688,25.155,6.257l19.207,28.753-6.189,7.447-.339.226-20.85-31.213a25.942,25.942,0,0,0-7.729-7.715q-4.389-2.714-10.749,1.537a16.854,16.854,0,0,0-5.356,6.214,27.009,27.009,0,0,0-2.92,9.125l23.343,34.946-6.188,7.446-.34.227Z"/>
      <path id="Path_709" data-name="Path 709" d="M6604.287,3902.044l-5.058,3.066q-.774-8.359-3.492-25.436l-1.048-7.237-5.3-34.717q-2.523-16.363,10.822-24.452l2.49,5.289a15.846,15.846,0,0,0-4.643,1.98,14.719,14.719,0,0,0-5.805,6.56,16.771,16.771,0,0,0-1.154,9.705l1.351,8.722,48.559,34.26-8.9,5.393-37.591-26.594,2.022,13.565Q6599.75,3892.391,6604.287,3902.044Z"/>
      <path id="Path_710" data-name="Path 710" d="M6542.192,3880.413l-1.31-.668q3.968-7.728,10.1-11.171,11.563-6.492,18.4,5.7l19.172,34.154,6.849-3.845.849,1.512-6.243,4.09.039,19.864-.357.2-8.487-15.12-15.21,8.538.058-2.606,14.053-7.889-19.073-33.977a18.851,18.851,0,0,0-4.891-5.793q-2.933-2.1-7.556.5A17.321,17.321,0,0,0,6542.192,3880.413Z"/>
      <path id="Path_711" data-name="Path 711" d="M6509.823,3926.753l34.766-18.041-.846-1.63q-5.591-10.776-13.514-14.418a16.829,16.829,0,0,0-15.53.3,21.107,21.107,0,0,0-7.653,6.844,22.621,22.621,0,0,0-3.861,10.163l-1.416-.071q1.586-15.992,14.622-22.756,9.869-5.121,19.706-1.665t15.475,14.321q5.966,11.5,2.821,22.266t-13.739,16.265q-9.414,4.887-17.63,1.68T6509.823,3926.753Zm35.427-16.546-26.437,13.719q4.056,8.7,10.061,12.189t11.8.485q5.888-3.056,7.076-10.281T6545.25,3910.207Z"/>
      <path id="Path_712" data-name="Path 712" d="M6331.882,4046.6l-9.828,3.413-24.364-70.146,9.829-3.414L6319.9,4012.1l34.3-11.915-12.383-35.65,9.828-3.414,24.364,70.146-9.828,3.414-11.379-32.761-34.3,11.914Z"/>
      <path id="Path_713" data-name="Path 713" d="M6243.078,3999.157l-.178-.586a15.766,15.766,0,0,1,7.354-4.909q7.122-2.172,9.909,4.868,5.807-9.984,15.757-13.017,6.147-1.875,10.915.3a11.529,11.529,0,0,1,6.405,7.537q2.023,6.635-2.536,12.664t-14.572,10.258l-5.676,2.371-3.618,1.423,1.7,5.561q2.47,8.1,6.617,11.2t10.782,1.083q7.609-2.322,12.848-10.318l1.2.8a32.833,32.833,0,0,1-7.066,8.821,26.82,26.82,0,0,1-9.615,5.012q-18.147,5.537-23.772-12.9l-7.619-24.975q-1.37-4.489-2.6-5.713t-4.446-.244C6244.678,3998.456,6244.08,3998.708,6243.078,3999.157Zm17.748,1.2,5.566,18.245q11.027-4.752,15.573-9.6a10.851,10.851,0,0,0,2.58-11.292q-1.458-4.781-4.9-6.61a9.788,9.788,0,0,0-7.73-.522Q6265.091,3992.655,6260.826,4000.354Z"/>
      <path id="Path_714" data-name="Path 714" d="M6236.029,3998.433l21.513,76.595-8.108,5.456-.393.111-22.341-79.542Z"/>
      <path id="Path_715" data-name="Path 715" d="M6215.109,4004.226l20.518,76.869-8.18,5.35-.393.1-21.307-79.825Z"/>
      <path id="Path_716" data-name="Path 716" d="M6150.881,4022.925l-.146-.595a15.765,15.765,0,0,1,7.621-4.482q7.236-1.766,9.618,5.423,6.364-9.638,16.471-12.1,6.243-1.522,10.88.917a11.529,11.529,0,0,1,5.966,7.889q1.644,6.738-3.251,12.5t-15.133,9.413l-5.8,2.044-3.693,1.215,1.378,5.649q2.005,8.223,5.969,11.562t10.7,1.7q7.73-1.885,13.415-9.572l1.157.873a32.872,32.872,0,0,1-7.556,8.405,26.852,26.852,0,0,1-9.885,4.458q-18.43,4.494-23-14.235l-6.187-25.368q-1.112-4.56-2.266-5.851t-4.426-.5Q6152.418,4022.34,6150.881,4022.925Zm17.65,2.2,4.52,18.531q11.279-4.116,16.094-8.7a10.85,10.85,0,0,0,3.218-11.126q-1.184-4.856-4.512-6.879a9.791,9.791,0,0,0-7.689-.96Q6173.228,4017.686,6168.531,4025.13Zm31.081,49.955a9.443,9.443,0,0,1,4.812,6.386,9.224,9.224,0,0,1-1.394,7.846,12.541,12.541,0,0,1-15.36,3.746,9.226,9.226,0,0,1-4.849-6.325,9.447,9.447,0,0,1,1.332-7.884,12.511,12.511,0,0,1,15.459-3.769Zm-12.181,3.863a12.959,12.959,0,0,0,3.068,12.585,5.992,5.992,0,0,0,9.315-2.271,12.961,12.961,0,0,0-3.069-12.586,5.991,5.991,0,0,0-9.314,2.272Z"/>
      <path id="Path_717" data-name="Path 717" d="M5980.937,4054.842l-1.086,6.594a26.8,26.8,0,0,0-10.875-6.136,31.173,31.173,0,0,0-12.994-1.372q-7.4.854-11.386,5.423a13.175,13.175,0,0,0-3.466,10.874q1.053,6.447,5.263,9.556t12.975,6.1l5.324,1.643a85.144,85.144,0,0,1,9.783,3.8q10.126,4.989,11.286,15.022a17.643,17.643,0,0,1-4.874,14.681q-5.845,6.272-16.182,7.467a40.6,40.6,0,0,1-21.291-2.98l.965-5.863q10.311,8.36,21.253,7.093,6.688-.773,10.319-4.889a12.063,12.063,0,0,0,2.975-9.79q-.982-5.844-4.9-8.675t-12.788-5.812l-5.336-1.745a95.807,95.807,0,0,1-10.449-4.233,18.245,18.245,0,0,1-11.005-15.26,19.313,19.313,0,0,1,5.217-16.158q6.305-6.736,17.047-7.978a54.546,54.546,0,0,1,13.157.121A50.784,50.784,0,0,1,5980.937,4054.842Z"/>
      <path id="Path_718" data-name="Path 718" d="M5880.123,4097.058l-3.069-35.978,9.552-.814,3.087,36.18a25.273,25.273,0,0,0,3.036,10.387q2.542,4.594,10.165,3.944,8.131-.693,15.036-8.55l-3.782-44.311,9.554-.815,6.763,79.272-8.887,3.829-.406.034-3.078-36.079q-8.281,9.715-19.055,10.635Q5881.762,4116.265,5880.123,4097.058Z"/>
      <path id="Path_719" data-name="Path 719" d="M5805.553,4119.251l-6.011.305q4.348-10.945,11.16-31.716l8.333-25.035.713-.036,16.9,39.383,13.248-40.911.713-.036,25.025,54.5-10.289.522-18.271-40.132-13.308,41.73-.612.032-17.237-39.877-3.446,10.591Q5805.928,4108.508,5805.553,4119.251Z"/>
      <path id="Path_720" data-name="Path 720" d="M5709.653,4102.5l-.387-36.106,9.588-.1.389,36.31a25.275,25.275,0,0,0,2.255,10.584q2.194,4.77,9.843,4.689,8.06-.087,15.517-8.327a35.213,35.213,0,0,1-.9-7.437l-.388-36.106,9.69-.1.389,36.31a25.3,25.3,0,0,0,2.256,10.585q2.094,4.772,9.741,4.689,7.344-.078,14.712-7.3l-.477-44.571,9.689-.1.564,52.526-9.252,2.854-.408,0-.094-8.771a33.837,33.837,0,0,1-9,6.88,22.962,22.962,0,0,1-9.973,2.2q-12.24.13-16.018-9.825a37.151,37.151,0,0,1-9.71,7.755,23.424,23.424,0,0,1-10.582,2.46Q5709.86,4121.779,5709.653,4102.5Z"/>
      <path id="Path_721" data-name="Path 721" d="M5652.914,4066.8l.018-.611a15.74,15.74,0,0,1,8.54-2.293q7.443.223,7.826,7.787,8.7-7.6,19.1-7.281,6.423.194,10.244,3.78a11.53,11.53,0,0,1,3.651,9.192q-.21,6.931-6.461,11.183t-17.092,5.045l-6.135.427-3.884.189-.176,5.811q-.255,8.462,2.677,12.735t9.865,4.481q7.953.24,15.478-5.655l.884,1.149a32.858,32.858,0,0,1-9.521,6.091,26.842,26.842,0,0,1-10.714,1.666q-18.965-.573-18.382-19.842l.788-26.1q.142-4.69-.627-6.243t-4.135-1.657Q5654.551,4066.643,5652.914,4066.8Zm16.427,6.823-.575,19.066q11.967-.966,17.828-4.1a10.852,10.852,0,0,0,6.064-9.868q.151-5-2.518-7.832a9.8,9.8,0,0,0-7.157-2.972Q5675.849,4067.7,5669.341,4073.621Z"/>
      <path id="Path_722" data-name="Path 722" d="M5599.571,4092.267l39.1,2.242.1-1.833q.7-12.12-4.258-19.3a16.824,16.824,0,0,0-13.5-7.671,21.115,21.115,0,0,0-10.075,1.977,22.617,22.617,0,0,0-8.51,6.766l-1.181-.783q9.53-12.94,24.192-12.1,11.1.636,17.793,8.631t5.993,20.216q-.743,12.93-8.946,20.584t-20.117,6.97q-10.592-.607-16.016-7.56T5599.571,4092.267Zm38.908,3.865-29.735-1.7q-.954,9.547,2.426,15.617a11.564,11.564,0,0,0,9.9,6.442q6.62.379,11.333-5.224T5638.479,4096.132Z"/>
      <path id="Path_723" data-name="Path 723" d="M5407.474,4088.51l8.422-5.705-27.835-37.646,2.21-12.971.6.1,34.358,46.725-16.709,11.224q-16.924,11.292-23.057,18.732l-8.044-1.37.034-.2Q5391.119,4099.485,5407.474,4088.51Zm37.623-44.7-12.472,73.2-10.257-1.747,12.472-73.2Z"/>
      <path id="Path_724" data-name="Path 724" d="M5382.5,4060.144q-2.566,12.487-11.91,18.691t-21.135,3.78q-11.589-2.38-17.434-11.443t-3.3-21.451q2.545-12.391,11.889-18.592t21.135-3.78q11.592,2.38,17.443,11.393T5382.5,4060.144Zm-43.463-8.929q-2.442,11.889.734,20.248t10.571,9.877q7.493,1.539,13.468-4.731t8.376-17.96q2.442-11.891-.746-20.2t-10.58-9.827q-7.493-1.539-13.447,4.631T5339.039,4051.215Z"/>
      <path id="Path_725" data-name="Path 725" d="M5272.078,4045.182l8.462-35.1,9.421,2.272-8.511,35.3a25.29,25.29,0,0,0-.4,10.815q.96,5.16,8.4,6.955,7.934,1.913,16.869-3.383l10.422-43.233,9.42,2.271-12.311,51.067-9.668.5-.4-.1,2.057-8.528q-11.2,6.429-21.317,3.99Q5267.56,4063.922,5272.078,4045.182Z"/>
      <path id="Path_726" data-name="Path 726" d="M5215.276,4029.632l9.655-34.794,9.338,2.591-9.709,34.99a25.261,25.261,0,0,0-.773,10.794q.783,5.192,8.153,7.238,7.866,2.181,16.975-2.8l11.891-42.854,9.337,2.591L5256.1,4058l-9.681.172-.393-.11,2.345-8.453q-11.414,6.043-21.439,3.261Q5210.123,4048.207,5215.276,4029.632Z"/>
      <path id="Path_727" data-name="Path 727" d="M5191.1,4051.2l4.622,8.651-8.652,4.624-4.622-8.653Zm23.133-59.706-15.257,50.265-9.584-.032-.391-.118,16.059-52.9Z"/>
      <path id="Path_728" data-name="Path 728" d="M5188.244,4011.428q-3.688,11.886-13.795,17.316a24.646,24.646,0,0,1-20.6,1.768q-12.7-4.172-16.581-15.218l5.119-2.183q3.122,13.048,11.455,15.787,6.977,2.294,13.6-2.833t10.125-15.784q3.754-11.436.979-19.487a16.078,16.078,0,0,0-10.626-10.63,19.959,19.959,0,0,0-9.856-.554,22.883,22.883,0,0,0-9.868,4.381l-.94-1.06q12.633-10.021,25.811-5.693a23.325,23.325,0,0,1,14.685,12.984Q5192.066,3999.8,5188.244,4011.428Z"/>
      <path id="Path_729" data-name="Path 729" d="M5088.523,3986.883l12.456-33.892,9,3.308-12.526,34.083a25.249,25.249,0,0,0-1.648,10.7q.357,5.237,7.537,7.877,7.661,2.815,17.242-1.379l15.34-41.742,9,3.307-27.444,74.677-9.672-.3-.383-.14,12.49-33.987q-11.615,5.292-21.765,1.563Q5081.874,4004.978,5088.523,3986.883Z"/>
      <path id="Path_730" data-name="Path 730" d="M5062.517,4006.315l3.884,9.007-9.006,3.885-3.885-9.007Zm28.034-57.568-19.4,48.817-9.549-.831-.378-.15,20.415-51.377Z"/>
      <path id="Path_731" data-name="Path 731" d="M4989.856,3964.976l-5.516-2.407q8.771-7.859,24.124-23.418l18.616-18.7.654.285-2.416,42.79,30.09-30.719.655.285-1.882,59.937-9.444-4.118,1.528-44.068-30.511,31.427-.561-.245,2.339-43.38-7.805,7.946Q4994.98,3955.526,4989.856,3964.976Z"/>
      <path id="Path_732" data-name="Path 732" d="M4962.168,3893.885l.269-.55a15.761,15.761,0,0,1,8.725,1.423q6.693,3.268,3.93,10.318,11.055-3.344,20.4,1.222,5.775,2.818,7.781,7.658a11.526,11.526,0,0,1-.454,9.881q-3.042,6.231-10.489,7.535t-17.654-2.434l-5.768-2.135-3.618-1.425-2.551,5.224q-3.713,7.608-2.8,12.709t7.148,8.143q7.149,3.49,16.433,1.213l.333,1.411a32.828,32.828,0,0,1-11.183,1.634,26.822,26.822,0,0,1-10.451-2.889q-17.049-8.325-8.591-25.647l11.457-23.465q2.058-4.218,2-5.949t-3.086-3.21C4963.815,3894.463,4963.206,3894.239,4962.168,3893.885Zm12.165,12.977L4965.965,3924q11.306,4.043,17.938,3.594a10.851,10.851,0,0,0,9.587-6.5q2.193-4.491.927-8.174a9.787,9.787,0,0,0-5.3-5.652Q4982.7,3904.139,4974.333,3906.862Z"/>
      <path id="Path_733" data-name="Path 733" d="M4748.5,3846.255l-4.984-3.552q9.12-9.282,20.481-25.233l24.976-35.058.748.533.526,80.653,18.406-25.836q11.9-16.7,17.159-27.6l4.985,3.552a213.035,213.035,0,0,0-20.483,25.233l-20.063,28.162.046,8.549-.177.249-10.053-7.161.151-70.527-14.559,20.436Q4753.766,3835.351,4748.5,3846.255Z"/>
      <path id="Path_734" data-name="Path 734" d="M4741.374,3749.455l.381-.478a15.765,15.765,0,0,1,8.211,3.279q5.826,4.64,1.6,10.925,11.517-.87,19.654,5.611,5.026,4,5.938,9.163a11.53,11.53,0,0,1-2.584,9.547q-4.321,5.425-11.872,5.084t-16.708-6.2l-5.169-3.334-3.222-2.176-3.623,4.548q-5.273,6.623-5.485,11.8t5.214,9.5q6.223,4.956,15.781,4.744l.019,1.45a32.867,32.867,0,0,1-11.272-.828,26.842,26.842,0,0,1-9.577-5.084q-14.84-11.819-2.831-26.9l16.267-20.425q2.923-3.672,3.238-5.375t-2.318-3.8C4742.857,3750.376,4742.311,3750.026,4741.374,3749.455Zm9.065,15.3-11.882,14.921q10.162,6.4,16.735,7.394a10.852,10.852,0,0,0,10.767-4.269q3.114-3.91,2.674-7.78a9.787,9.787,0,0,0-3.949-6.666Q4759.2,3763.914,4750.439,3764.76Z"/>
      <path id="Path_735" data-name="Path 735" d="M4653.392,3715.3l24.456-26.565,7.053,6.5-24.593,26.714a25.285,25.285,0,0,0-5.61,9.255q-1.67,4.979,3.957,10.159,5.928,5.459,17.008,4.567a35.15,35.15,0,0,1,4.443-6.03l24.457-26.566,7.128,6.564L4687.1,3746.6a25.3,25.3,0,0,0-5.609,9.255q-1.744,4.909,3.882,10.09,5.4,4.976,15.717,4.765l30.19-32.793,7.129,6.563-35.579,38.647-8.694-4.261-.3-.276,5.941-6.454a33.8,33.8,0,0,1-11.272-1.159,22.954,22.954,0,0,1-8.771-5.232q-9-8.289-4.936-18.131a37.119,37.119,0,0,1-12.385-1,23.392,23.392,0,0,1-9.393-5.459Q4640.336,3729.482,4653.392,3715.3Z"/>
      <path id="Path_736" data-name="Path 736" d="M4638.448,3649.336l.448-.416a15.745,15.745,0,0,1,7.629,4.469q5.067,5.457-.048,11.041,11.518.859,18.595,8.484,4.373,4.71,4.5,9.947a11.532,11.532,0,0,1-3.98,9.054q-5.084,4.72-12.5,3.254t-15.6-8.626l-4.612-4.068-2.862-2.633-4.26,3.956q-6.2,5.76-7.188,10.848t3.737,10.171q5.413,5.831,14.9,7.048l-.2,1.437a32.857,32.857,0,0,1-11.022-2.5,26.863,26.863,0,0,1-8.711-6.458q-12.907-13.9,1.219-27.021l19.136-17.766q3.439-3.193,4-4.831t-1.725-4.107Q4639.707,3650.394,4638.448,3649.336Zm6.678,16.487-13.978,12.978q9.093,7.842,15.443,9.811a10.849,10.849,0,0,0,11.283-2.612q3.663-3.4,3.808-7.293a9.8,9.8,0,0,0-2.91-7.182Q4653.915,3666.295,4645.126,3665.823Z"/>
      <path id="Path_737" data-name="Path 737" d="M4636.075,3648.279l-4.981,2.142a23.694,23.694,0,0,0-5.3-19.983q-3.842-4.63-8.39-5.565a9.183,9.183,0,0,0-8.083,2,9,9,0,0,0-3.183,6.548q0,3.513,2.145,10.74l1.334,4.327a81.921,81.921,0,0,1,2.172,8.534q1.337,8.961-4.712,13.974a13.094,13.094,0,0,1-11.6,2.791q-6.57-1.375-11.975-7.893a34.789,34.789,0,0,1-7.962-16.321l4.6-1.96q-1.008,10.773,5.046,18.076,3.384,4.083,7.373,4.819a8.314,8.314,0,0,0,7.128-1.869,7.577,7.577,0,0,0,2.755-4.668,14.691,14.691,0,0,0-.02-4.82,74.6,74.6,0,0,0-2.076-7.619l-1.269-4.247a59.408,59.408,0,0,1-2.12-8.312q-1.464-9.12,4.9-14.392a14.209,14.209,0,0,1,12.533-3.1q7.036,1.453,13.154,8.837a43.853,43.853,0,0,1,5.717,8.974A27.73,27.73,0,0,1,4636.075,3648.279Z"/>
      <path id="Path_738" data-name="Path 738" d="M4587.384,3588.42l.489-1.388q8.183,2.921,12.4,8.551,7.955,10.611-3.228,18.992l-31.34,23.492,4.71,6.285-1.387,1.04-4.874-5.652-19.687,2.647-.244-.326,13.874-10.4-10.461-13.957,2.591-.284,9.666,12.9,31.177-23.371a18.847,18.847,0,0,0,5.1-5.608q1.7-3.183-1.487-7.426A17.322,17.322,0,0,0,4587.384,3588.42Z"/>
      <path id="Path_739" data-name="Path 739" d="M4537.929,3561.538l21.676,32.622,1.53-1.015q10.112-6.72,12.881-14.989a16.836,16.836,0,0,0-1.972-15.407,21.1,21.1,0,0,0-7.628-6.871,22.631,22.631,0,0,0-10.52-2.746l-.083-1.415q16.071-.144,24.2,12.088,6.152,9.261,3.775,19.413t-12.571,16.926q-10.789,7.169-21.834,5.2t-17.649-11.908q-5.871-8.835-3.567-17.347T4537.929,3561.538Zm20.261,33.441-16.484-24.807q-8.21,4.966-11.035,11.313t.788,11.785q3.67,5.521,10.981,5.928T4558.19,3594.979Z"/>
      <path id="Path_740" data-name="Path 740" d="M4414.482,3379.544l-1.633-5.9q12.93-1.463,31.8-6.693l41.483-11.489.245.885-50.4,62.964,30.57-8.467q19.759-5.473,30.715-10.624l1.634,5.9a212.986,212.986,0,0,0-31.8,6.693l-33.323,9.23-5.351,6.668-.295.082-3.294-11.9,44.549-54.675-24.181,6.7Q4425.438,3374.392,4414.482,3379.544Z"/>
      <path id="Path_741" data-name="Path 741" d="M4482.828,3343.559l-51.521,10.246-4.492-8.466-.08-.4,54.222-10.784Z"/>
      <path id="Path_742" data-name="Path 742" d="M4452.484,3328.464l-3.327.508-3.307-21.68,3.327-.508Z"/>
      <path id="Path_743" data-name="Path 743" d="M4434.81,3249.88l36.006-2.7.717,9.56-36.211,2.715a25.278,25.278,0,0,0-10.418,2.93q-4.619,2.493-4.049,10.123.612,8.139,8.4,15.122l44.348-3.325.716,9.561-79.337,5.948-3.738-8.925-.03-.407,36.108-2.707q-9.628-8.382-10.437-19.164Q4415.586,3251.323,4434.81,3249.88Z"/>
      <path id="Path_744" data-name="Path 744" d="M4469.286,3191.863l.611.015a15.739,15.739,0,0,1,2.342,8.526q-.181,7.444-7.743,7.87,7.647,8.658,7.39,19.057-.16,6.424-3.721,10.265a11.529,11.529,0,0,1-9.172,3.7q-6.933-.17-11.219-6.4t-5.142-17.062l-.462-6.134-.211-3.882-5.813-.142q-8.462-.208-12.718,2.749t-4.426,9.89q-.195,7.954,5.743,15.446l-1.144.89a32.861,32.861,0,0,1-6.145-9.486,26.843,26.843,0,0,1-1.727-10.7q.465-18.966,19.737-18.494l26.1.64q4.693.114,6.241-.664t1.631-4.142Q4469.449,3193.5,4469.286,3191.863Zm-6.729,16.466-19.069-.468q1.036,11.964,4.206,17.806a10.852,10.852,0,0,0,9.9,6.008q5,.122,7.817-2.564a9.794,9.794,0,0,0,2.931-7.173Q4468.519,3214.8,4462.557,3208.329Z"/>
      <path id="Path_745" data-name="Path 745" d="M4445.056,3187.6q-12.665-1.47-19.657-10.24t-5.6-20.725q1.364-11.752,9.884-18.363t21.084-5.151q12.564,1.458,19.554,10.228t5.6,20.725q-1.363,11.754-9.833,18.368T4445.056,3187.6Zm5.116-44.075q-12.057-1.4-20.108,2.493t-8.92,11.389q-.882,7.6,5.883,13.006t18.62,6.781q12.06,1.4,20.057-2.5t8.87-11.4q.882-7.6-5.782-12.993T4450.172,3143.528Z"/>
      <path id="Path_746" data-name="Path 746" d="M4517.4,2991.363l-4.973-4.464a26.776,26.776,0,0,0,11.023-5.863,31.2,31.2,0,0,0,8.151-10.213q3.258-6.693,1.555-12.515a13.172,13.172,0,0,0-7.3-8.774q-6-2.581-10.886-.707t-12.123,7.654l-4.25,3.6a85.014,85.014,0,0,1-8.466,6.2q-9.656,5.85-18.734,1.428a17.639,17.639,0,0,1-9.751-12.009q-2.141-8.3,2.415-17.657a40.576,40.576,0,0,1,13.969-16.341l4.421,3.968q-12.591,4.192-17.415,14.1-2.948,6.054-1.431,11.329a12.058,12.058,0,0,0,6.65,7.776q5.454,2.316,9.95.534t11.781-7.65l4.342-3.559a95.734,95.734,0,0,1,9.192-6.528,18.239,18.239,0,0,1,18.784-1.064,19.315,19.315,0,0,1,10.811,13.093q2.285,8.94-2.45,18.661a54.447,54.447,0,0,1-7.183,11.024A50.794,50.794,0,0,1,4517.4,2991.363Z"/>
      <path id="Path_747" data-name="Path 747" d="M4567.156,2902.335l.529.31a15.771,15.771,0,0,1-2.088,8.591q-3.771,6.423-10.589,3.128,2.487,11.28-2.781,20.249-3.253,5.543-8.233,7.172a11.527,11.527,0,0,1-9.816-1.21q-5.982-3.512-6.709-11.036t3.779-17.416l2.57-5.587,1.7-3.5-5.014-2.944q-7.3-4.287-12.456-3.765t-8.667,6.5q-4.029,6.859-2.469,16.292l-1.432.224a32.841,32.841,0,0,1-.773-11.276,26.818,26.818,0,0,1,3.682-10.2q9.6-16.36,26.23-6.6l22.518,13.22q4.045,2.376,5.778,2.447t3.437-2.832C4566.454,2903.934,4566.724,2903.343,4567.156,2902.335Zm-13.871,11.136-16.448-9.658q-4.9,10.964-4.958,17.611a10.847,10.847,0,0,0,5.746,10.056q4.311,2.532,8.079,1.55a9.79,9.79,0,0,0,6.042-4.85Q4555.359,2922.024,4553.285,2913.471Z"/>
      <path id="Path_748" data-name="Path 748" d="M4572.9,2898.724l-66.472-43.718,2.544-9.437.224-.34,69.028,45.4Z"/>
      <path id="Path_749" data-name="Path 749" d="M4562.716,2818.858l3.477-4.785q6.073,11.6,16.66,29.128l13.942,23.5-.42.577-59.144-13.348,6.117-8.416,44.691,10.159-6.7-11.426Q4570.472,2825.884,4562.716,2818.858Z"/>
      <path id="Path_750" data-name="Path 750" d="M4617.1,2788.862l-24.931,30.209,1.416,1.169q9.363,7.728,18.08,7.978a16.827,16.827,0,0,0,14.173-6.357,21.1,21.1,0,0,0,4.363-9.293,22.63,22.63,0,0,0-.425-10.864l1.331-.489q4.8,15.336-4.548,26.664-7.077,8.576-17.483,9.245t-19.845-7.12q-9.992-8.244-11.312-19.386t6.276-20.345q6.751-8.181,15.567-8.446T4617.1,2788.862Zm-26.125,29.092,18.958-22.972q-7.136-6.415-14.029-7.279a11.568,11.568,0,0,0-11.048,4.173q-4.221,5.115-2.489,12.229T4590.971,2817.954Z"/>
      <path id="Path_751" data-name="Path 751" d="M4413.064,3362.894l6.568-11.22-11.221-6.568" fill="none" stroke="#000" stroke-miterlimit="10" stroke-width="3"/>
      <path id="Path_752" data-name="Path 752" d="M4396.046,3229.245l8.73-9.635-9.635-8.73" fill="none" stroke="#000" stroke-miterlimit="10" stroke-width="3"/>
    </g>
    <circle id="Ellipse_164" data-name="Ellipse 164" cx="12" cy="12" r="12" transform="translate(4657 2715)"/>
    <circle id="Ellipse_165" data-name="Ellipse 165" cx="12" cy="12" r="12" transform="translate(4453 3037)"/>
    <circle id="Ellipse_166" data-name="Ellipse 166" cx="12" cy="12" r="12" transform="translate(4982 2498)"/>
    <circle id="Ellipse_167" data-name="Ellipse 167" cx="12" cy="12" r="12" transform="translate(6930 2884)"/>
    <circle id="Ellipse_168" data-name="Ellipse 168" cx="12" cy="12" r="12" transform="translate(6200 2393)"/>
    <circle id="Ellipse_169" data-name="Ellipse 169" cx="12" cy="12" r="12" transform="translate(5890 2353)"/>
    <circle id="Ellipse_170" data-name="Ellipse 170" cx="12" cy="12" r="12" transform="translate(5528 2353)"/>
    <circle id="Ellipse_171" data-name="Ellipse 171" cx="12" cy="12" r="12" transform="translate(6665 2610)"/>
    <circle id="Ellipse_172" data-name="Ellipse 172" cx="12" cy="12" r="12" transform="translate(6058 4066)"/>
    <circle id="Ellipse_173" data-name="Ellipse 173" cx="12" cy="12" r="12" transform="translate(6436 3948)"/>
    <circle id="Ellipse_174" data-name="Ellipse 174" cx="12" cy="12" r="12" transform="translate(6963 3473)"/>
    <circle id="Ellipse_175" data-name="Ellipse 175" cx="12" cy="12" r="12" transform="translate(5516 4072)"/>
    <circle id="Ellipse_176" data-name="Ellipse 176" cx="12" cy="12" r="12" transform="translate(4872 3869)"/>
    <circle id="Ellipse_177" data-name="Ellipse 177" cx="12" cy="12" r="12" transform="translate(4495 3478)"/>
  </g>
</svg>
