<svg xmlns="http://www.w3.org/2000/svg" width="107.562" height="107.498" viewBox="0 0 107.562 107.498">
  <g id="Group_358" data-name="Group 358" transform="translate(-1138.037 -1595.024)">
    <g id="Group_354" data-name="Group 354" transform="translate(1594.904 1606.743)">
      <g id="Group_353" data-name="Group 353" transform="translate(-456.867 -11.719)">
        <path id="Path_438" data-name="Path 438" d="M-395.73-6.116l3.057,2.26.289,1.412-.067.013-4.041-3a.892.892,0,0,0-.282-.133.873.873,0,0,0-.344.018l-.745.152.747,3.659-1.134.232L-399.9-9.6l1.99-.406q3.28-.669,3.7,1.376Q-393.922-7.191-395.73-6.116Zm.385-2.2a1.883,1.883,0,0,0-.854-1.32,2.369,2.369,0,0,0-1.722-.181l-.812.165.82,4.015a5.99,5.99,0,0,0,1.036-.143,1.85,1.85,0,0,0,1.292-.907A2.245,2.245,0,0,0-395.345-8.314Z" transform="translate(440.31 11.268)"/>
        <path id="Path_439" data-name="Path 439" d="M-383.452-4.253h.023l-.167.773-4.882.309L-389-11.418l4.745-.3.181.705h-.022a9.578,9.578,0,0,0-3.114-.315l-.623.04.231,3.647.521-.033a7.773,7.773,0,0,0,2.364-.377h.023l.044.7h-.022a6.8,6.8,0,0,0-2.4-.121l-.521.033.253,3.987.657-.042A9.5,9.5,0,0,0-383.452-4.253Z" transform="translate(437.141 11.719)"/>
        <path id="Path_440" data-name="Path 440" d="M-375.481-3.115-376.37-5.9l-3.215-.236a9.47,9.47,0,0,0-.866,2.656l-.781-.057q.69-1.19,1.72-3.288l.106-.209,2.322-4.666.045,0,2.813,8.672Zm-4.009-3.218,3.056.224L-377.685-10-379.2-6.938Z" transform="translate(434.883 11.713)"/>
        <path id="Path_441" data-name="Path 441" d="M-362.558-5.034a3.982,3.982,0,0,1-1.925,2.722A4.771,4.771,0,0,1-368-2.007l-2.625-.635,1.943-8.03,2.813.68A4.6,4.6,0,0,1-363.011-8.2,3.8,3.8,0,0,1-362.558-5.034Zm-1.249-.244a4.346,4.346,0,0,0-.187-2.965,2.86,2.86,0,0,0-2.013-1.6l-1.588-.384-1.834,7.579a9.362,9.362,0,0,0,1.664.507,2.746,2.746,0,0,0,2.478-.468A4.688,4.688,0,0,0-363.807-5.278Z" transform="translate(431.799 11.415)"/>
        <path id="Path_442" data-name="Path 442" d="M-357.625-1.775l.135-.35,2.278.876-.135.35Z" transform="translate(428.022 8.93)"/>
        <path id="Path_443" data-name="Path 443" d="M-347.928,6.294l-1.014-.558,3.027-6.95L-351.741,3.6l-.04-.023.56-7.389-2.037,3.037q-.653.949-1.157,1.863a13.742,13.742,0,0,0-.631,1.285l-.6-.328a30.006,30.006,0,0,0,2.19-2.94l2.279-3.384.039-.587.016-.03,1.094.6-.536,6.638,5.028-4.162.915.5Z" transform="translate(427.445 9.736)"/>
        <path id="Path_444" data-name="Path 444" d="M-340.906,6.3a4.117,4.117,0,0,1,2.98-1.585,4.231,4.231,0,0,1,3.164,1.105A4.19,4.19,0,0,1-333.2,8.66a4.02,4.02,0,0,1-1.055,3.088,4.116,4.116,0,0,1-2.979,1.585,4.232,4.232,0,0,1-3.165-1.106,4.188,4.188,0,0,1-1.558-2.837A4.024,4.024,0,0,1-340.906,6.3Zm5.6,4.717a4.882,4.882,0,0,0,1.286-2.825,2.613,2.613,0,0,0-.926-2.292,2.586,2.586,0,0,0-2.385-.569,4.807,4.807,0,0,0-2.524,1.7,4.851,4.851,0,0,0-1.281,2.829,2.648,2.648,0,0,0,.947,2.31,2.551,2.551,0,0,0,2.364.55A4.829,4.829,0,0,0-335.308,11.02Z" transform="translate(423.475 6.945)"/>
        <path id="Path_445" data-name="Path 445" d="M-328.923,18.078l-.548,3.762-1.108.921-.044-.052.732-4.977a.89.89,0,0,0-.016-.312.87.87,0,0,0-.179-.294l-.486-.584-2.871,2.388-.741-.89,6.353-5.283,1.3,1.562q2.141,2.574.535,3.91Q-327.12,19.162-328.923,18.078Zm2.12-.7A1.882,1.882,0,0,0-326.044,16a2.368,2.368,0,0,0-.654-1.6l-.53-.637-3.15,2.62a5.913,5.913,0,0,0,.615.846,1.851,1.851,0,0,0,1.409.71A2.243,2.243,0,0,0-326.8,17.378Z" transform="translate(421.208 4.606)"/>
        <path id="Path_446" data-name="Path 446" d="M-324.932,29.726l.012.02-.76.218-2.581-4.155,7.019-4.36,2.509,4.04-.536.493-.012-.019a9.56,9.56,0,0,0-1.195-2.892l-.33-.531-3.1,1.929.275.443a7.747,7.747,0,0,0,1.451,1.9l.012.019-.6.372-.012-.019a6.765,6.765,0,0,0-1.026-2.168l-.276-.444-3.394,2.108.347.56A9.513,9.513,0,0,0-324.932,29.726Z" transform="translate(419.487 2.079)"/>
        <path id="Path_447" data-name="Path 447" d="M-314.639,48.293l-2.217,3.088-1.408.309-.015-.067,2.94-4.083a.884.884,0,0,0,.13-.284.862.862,0,0,0-.023-.343l-.162-.743-3.648.8-.248-1.131,8.072-1.767.434,1.985q.716,3.27-1.324,3.717Q-313.537,50.085-314.639,48.293Zm2.2.354a1.88,1.88,0,0,0,1.307-.872,2.37,2.37,0,0,0,.157-1.725l-.177-.809-4,.876a5.948,5.948,0,0,0,.158,1.035,1.848,1.848,0,0,0,.924,1.278A2.243,2.243,0,0,0-312.435,48.647Z" transform="translate(416.879 -4.496)"/>
        <path id="Path_448" data-name="Path 448" d="M-316.286,60.6v.023l-.775-.157-.377-4.877,8.238-.637.367,4.741-.7.191,0-.022a9.563,9.563,0,0,0,.271-3.118l-.048-.622-3.644.282.04.52a7.76,7.76,0,0,0,.41,2.359v.022l-.7.055v-.023a6.777,6.777,0,0,0,.088-2.4l-.04-.52-3.983.308.05.656A9.512,9.512,0,0,0-316.286,60.6Z" transform="translate(416.341 -7.659)"/>
        <path id="Path_449" data-name="Path 449" d="M-317.331,68.628l2.772-.926.191-3.218a9.437,9.437,0,0,0-2.668-.829l.047-.782q1.2.674,3.311,1.674l.21.1,4.7,2.258,0,.045-8.633,2.932Zm3.162-4.053-.182,3.059,3.875-1.3-3.085-1.468Z" transform="translate(416.332 -9.962)"/>
        <path id="Path_450" data-name="Path 450" d="M-315.313,81.5a3.986,3.986,0,0,1-2.749-1.886,4.768,4.768,0,0,1-.357-3.508l.6-2.635,8.058,1.827-.641,2.822A4.6,4.6,0,0,1-312.151,81,3.8,3.8,0,0,1-315.313,81.5Zm.226-1.252a4.351,4.351,0,0,0,2.962-.231,2.858,2.858,0,0,0,1.567-2.037l.362-1.594-7.6-1.724a9.348,9.348,0,0,0-.484,1.671,2.749,2.749,0,0,0,.505,2.471A4.688,4.688,0,0,0-315.087,80.244Z" transform="translate(416.676 -13.041)"/>
        <path id="Path_451" data-name="Path 451" d="M-315.389,86.445l.351.13-.843,2.29-.351-.13Z" transform="translate(415.991 -16.813)"/>
        <path id="Path_452" data-name="Path 452" d="M-327.364,96.283l.544-1.022,6.993,2.927-4.894-5.756.021-.04,7.4.454-3.066-1.993q-.959-.639-1.88-1.13a13.664,13.664,0,0,0-1.294-.612l.32-.6a30.116,30.116,0,0,0,2.971,2.148l3.416,2.23.588.031.03.016-.587,1.1-6.645-.44,4.234,4.968-.491.921Z" transform="translate(419.226 -17.413)"/>
        <path id="Path_453" data-name="Path 453" d="M-326.25,103.293a4.12,4.12,0,0,1,1.627,2.957,4.232,4.232,0,0,1-1.06,3.181,4.19,4.19,0,0,1-2.815,1.6,4.022,4.022,0,0,1-3.1-1.012,4.119,4.119,0,0,1-1.627-2.957,4.233,4.233,0,0,1,1.06-3.18,4.184,4.184,0,0,1,2.815-1.6A4.019,4.019,0,0,1-326.25,103.293Zm-4.638,5.665a4.881,4.881,0,0,0,2.843,1.245,2.615,2.615,0,0,0,2.279-.958,2.586,2.586,0,0,0,.535-2.393,4.807,4.807,0,0,0-1.733-2.5,4.856,4.856,0,0,0-2.847-1.241,2.65,2.65,0,0,0-2.3.98,2.551,2.551,0,0,0-.516,2.371A4.839,4.839,0,0,0-330.887,108.958Z" transform="translate(420.935 -21.409)"/>
        <path id="Path_454" data-name="Path 454" d="M-338.419,115.448l-3.769-.494-.937-1.1.052-.044,4.987.661a.905.905,0,0,0,.311-.02.9.9,0,0,0,.292-.183l.577-.494-2.428-2.837.88-.753,5.373,6.278-1.544,1.321q-2.543,2.177-3.9.59Q-339.478,117.265-338.419,115.448Zm.73,2.109a1.881,1.881,0,0,0,1.387.74,2.372,2.372,0,0,0,1.594-.677l.629-.538-2.664-3.113a5.973,5.973,0,0,0-.838.626,1.85,1.85,0,0,0-.689,1.42A2.243,2.243,0,0,0-337.689,117.557Z" transform="translate(423.807 -23.714)"/>
        <path id="Path_455" data-name="Path 455" d="M-349.4,119.6l-.019.012-.229-.756,4.118-2.64,4.459,6.956-4,2.566-.5-.528.019-.012a9.582,9.582,0,0,0,2.874-1.236l.526-.337-1.973-3.076-.439.282a7.758,7.758,0,0,0-1.884,1.478l-.019.012-.38-.592.019-.012a6.755,6.755,0,0,0,2.154-1.057l.44-.282-2.156-3.364-.554.355A9.508,9.508,0,0,0-349.4,119.6Z" transform="translate(425.704 -25.465)"/>
        <path id="Path_456" data-name="Path 456" d="M-367.456,130.141l-3.12-2.172-.329-1.4.067-.016,4.125,2.881a.908.908,0,0,0,.286.126.873.873,0,0,0,.343-.028l.74-.173-.851-3.635,1.127-.264,1.884,8.045-1.978.463q-3.26.763-3.736-1.27Q-369.233,131.268-367.456,130.141Zm-.323,2.208a1.88,1.88,0,0,0,.892,1.3,2.375,2.375,0,0,0,1.727.132l.807-.189-.933-3.989a5.953,5.953,0,0,0-1.033.172,1.852,1.852,0,0,0-1.265.943A2.241,2.241,0,0,0-367.779,132.349Z" transform="translate(431.882 -28.152)"/>
        <path id="Path_457" data-name="Path 457" d="M-379.016,128.665h-.023l.146-.777,4.871-.444.75,8.228-4.736.432-.2-.7h.023a9.564,9.564,0,0,0,3.12.228l.621-.057-.331-3.64-.521.048a7.79,7.79,0,0,0-2.353.443l-.022,0-.065-.7.023,0a6.77,6.77,0,0,0,2.4.055l.52-.048-.362-3.979-.655.06A9.487,9.487,0,0,0-379.016,128.665Z" transform="translate(434.246 -28.73)"/>
        <path id="Path_458" data-name="Path 458" d="M-387.584,127.769l.966,2.759,3.22.145a9.443,9.443,0,0,0,.792-2.68l.782.035q-.657,1.209-1.628,3.335l-.1.211-2.19,4.73-.045,0-3.054-8.591Zm4.1,3.1-3.061-.138,1.36,3.856,1.424-3.105Z" transform="translate(437.095 -28.807)"/>
        <path id="Path_459" data-name="Path 459" d="M-400.894,129.948a3.984,3.984,0,0,1,1.847-2.776,4.771,4.771,0,0,1,3.5-.406l2.642.56-1.713,8.083-2.831-.6a4.6,4.6,0,0,1-2.9-1.707A3.794,3.794,0,0,1-400.894,129.948Zm1.256.208a4.35,4.35,0,0,0,.272,2.958,2.86,2.86,0,0,0,2.058,1.539l1.6.339,1.617-7.628a9.394,9.394,0,0,0-1.678-.46,2.746,2.746,0,0,0-2.464.54A4.685,4.685,0,0,0-399.639,130.156Z" transform="translate(440.632 -28.489)"/>
        <path id="Path_460" data-name="Path 460" d="M-403.5,129.935l-.125.353-2.3-.81.124-.353Z" transform="translate(442.062 -29.218)"/>
        <path id="Path_461" data-name="Path 461" d="M-416.982,118.128l1.029.53-2.828,7.033,5.688-4.975.04.021-.35,7.4,1.949-3.094q.626-.967,1.1-1.9a13.513,13.513,0,0,0,.594-1.3l.606.311a30.1,30.1,0,0,0-2.106,3l-2.182,3.446-.022.589-.016.03-1.11-.571.346-6.651-4.908,4.3-.929-.478Z" transform="translate(446.174 -26.022)"/>
        <path id="Path_462" data-name="Path 462" d="M-423.088,119.331A4.117,4.117,0,0,1-426.022,121a4.23,4.23,0,0,1-3.195-1.015,4.184,4.184,0,0,1-1.637-2.791,4.022,4.022,0,0,1,.967-3.118,4.114,4.114,0,0,1,2.934-1.668,4.229,4.229,0,0,1,3.195,1.015,4.184,4.184,0,0,1,1.637,2.791A4.022,4.022,0,0,1-423.088,119.331Zm-5.729-4.557a4.878,4.878,0,0,0-1.205,2.861,2.616,2.616,0,0,0,.99,2.265,2.587,2.587,0,0,0,2.4.5,4.807,4.807,0,0,0,2.475-1.768,4.854,4.854,0,0,0,1.2-2.864,2.649,2.649,0,0,0-1.013-2.283,2.551,2.551,0,0,0-2.378-.483A4.827,4.827,0,0,0-428.818,114.775Z" transform="translate(449.316 -24.353)"/>
        <path id="Path_463" data-name="Path 463" d="M-435.43,107.331l.44-3.776,1.082-.952.045.05-.591,5a.906.906,0,0,0,.025.311.86.86,0,0,0,.187.289l.5.57,2.8-2.468.765.869-6.2,5.461-1.343-1.524q-2.212-2.512-.646-3.893Q-437.262,106.3-435.43,107.331Zm-2.1.76a1.882,1.882,0,0,0-.721,1.4,2.37,2.37,0,0,0,.7,1.584l.548.621,3.074-2.708a5.86,5.86,0,0,0-.639-.829,1.85,1.85,0,0,0-1.429-.67A2.242,2.242,0,0,0-437.528,108.09Z" transform="translate(451.677 -21.509)"/>
        <path id="Path_464" data-name="Path 464" d="M-440.026,96.383l-.012-.018.753-.24,2.7,4.081-6.893,4.556-2.622-3.967.521-.508.013.019a9.558,9.558,0,0,0,1.276,2.857l.344.521,3.049-2.015-.288-.435a7.777,7.777,0,0,0-1.5-1.863l-.013-.019.587-.388.012.019a6.8,6.8,0,0,0,1.087,2.139l.289.436,3.333-2.2-.363-.55A9.5,9.5,0,0,0-440.026,96.383Z" transform="translate(453.738 -19.626)"/>
        <path id="Path_465" data-name="Path 465" d="M-450.493,78.472l2.128-3.15,1.4-.348.016.065-2.822,4.165a.9.9,0,0,0-.121.287.863.863,0,0,0,.033.343l.184.738,3.623-.9.28,1.124-8.018,2-.491-1.971q-.809-3.248,1.217-3.754Q-451.645,76.712-450.493,78.472Zm-2.212-.292a1.88,1.88,0,0,0-1.283.91,2.369,2.369,0,0,0-.108,1.729l.2.8,3.976-.99a5.968,5.968,0,0,0-.186-1.03,1.851,1.851,0,0,0-.961-1.252A2.246,2.246,0,0,0-452.706,78.18Z" transform="translate(456.183 -13.479)"/>
        <path id="Path_466" data-name="Path 466" d="M-449.173,66.913l0-.023.779.135.514,4.865-8.217.868-.5-4.729.7-.211,0,.023a9.589,9.589,0,0,0-.184,3.123l.066.621,3.634-.384-.055-.519a7.777,7.777,0,0,0-.476-2.346l0-.023.7-.074,0,.023a6.744,6.744,0,0,0-.021,2.4l.055.519,3.973-.42-.069-.655A9.5,9.5,0,0,0-449.173,66.913Z" transform="translate(456.789 -11.129)"/>
        <path id="Path_467" data-name="Path 467" d="M-448.358,58.312l-2.745,1-.1,3.222a9.485,9.485,0,0,0,2.691.754l-.025.782q-1.217-.639-3.357-1.581l-.213-.1-4.76-2.124v-.045l8.548-3.173Zm-3.047,4.14.1-3.063-3.837,1.413,3.125,1.38Z" transform="translate(456.867 -8.27)"/>
        <path id="Path_468" data-name="Path 468" d="M-450.785,45.057a3.984,3.984,0,0,1,2.8,1.807,4.768,4.768,0,0,1,.455,3.5l-.522,2.65-8.106-1.6.56-2.84a4.6,4.6,0,0,1,1.665-2.928A3.8,3.8,0,0,1-450.785,45.057Zm-.191,1.258a4.348,4.348,0,0,0-2.954.314,2.862,2.862,0,0,0-1.509,2.08l-.316,1.6,7.65,1.509a9.367,9.367,0,0,0,.436-1.684,2.748,2.748,0,0,0-.574-2.456A4.69,4.69,0,0,0-450.976,46.315Z" transform="translate(456.661 -4.753)"/>
        <path id="Path_469" data-name="Path 469" d="M-447.711,42.435l-.355-.119.777-2.313.355.119Z" transform="translate(454.309 -3.314)"/>
        <path id="Path_470" data-name="Path 470" d="M-440.136,28.823l-.515,1.037-7.073-2.729,5.054,5.617-.02.041-7.406-.246,3.121,1.906q.977.612,1.911,1.077a13.647,13.647,0,0,0,1.312.575l-.3.61a30.006,30.006,0,0,0-3.03-2.064l-3.477-2.133-.589-.014-.031-.015.555-1.118,6.654.253-4.372-4.847.465-.935Z" transform="translate(455.215 0.803)"/>
        <path id="Path_471" data-name="Path 471" d="M-440.438,22.729a4.116,4.116,0,0,1-1.71-2.91,4.231,4.231,0,0,1,.97-3.209,4.187,4.187,0,0,1,2.769-1.676,4.023,4.023,0,0,1,3.13.922,4.119,4.119,0,0,1,1.71,2.91,4.229,4.229,0,0,1-.97,3.208,4.183,4.183,0,0,1-2.769,1.677A4.019,4.019,0,0,1-440.438,22.729Zm4.475-5.793a4.883,4.883,0,0,0-2.878-1.165,2.618,2.618,0,0,0-2.251,1.023,2.586,2.586,0,0,0-.466,2.407,4.8,4.8,0,0,0,1.8,2.449,4.856,4.856,0,0,0,2.881,1.16,2.65,2.65,0,0,0,2.268-1.044,2.552,2.552,0,0,0,.448-2.385A4.831,4.831,0,0,0-435.963,16.935Z" transform="translate(452.597 3.984)"/>
        <path id="Path_472" data-name="Path 472" d="M-429.2,10.211l3.781.388.968,1.069-.05.045-5-.521a.888.888,0,0,0-.311.029.85.85,0,0,0-.287.19l-.564.511,2.506,2.768-.858.777-5.546-6.124,1.506-1.364q2.482-2.246,3.884-.7Q-428.188,8.365-429.2,10.211Zm-.788-2.088a1.883,1.883,0,0,0-1.407-.7,2.37,2.37,0,0,0-1.575.721l-.614.557,2.75,3.037a5.978,5.978,0,0,0,.82-.65,1.851,1.851,0,0,0,.65-1.439A2.243,2.243,0,0,0-429.984,8.123Z" transform="translate(450.384 6.381)"/>
        <path id="Path_473" data-name="Path 473" d="M-417.747,5.472l.018-.013.25.75-4.042,2.754-4.653-6.827,3.929-2.678.515.514-.018.013A9.577,9.577,0,0,0-424.586,1.3l-.516.351,2.058,3.02.431-.294a7.741,7.741,0,0,0,1.841-1.53l.019-.013.4.582-.018.013A6.773,6.773,0,0,0-422.5,4.548l-.431.294,2.25,3.3.544-.37A9.515,9.515,0,0,0-417.747,5.472Z" transform="translate(447.946 8.47)"/>
      </g>
    </g>
    <circle id="Ellipse_59" data-name="Ellipse 59" cx="1.5" cy="1.5" r="1.5" transform="translate(1171 1601)"/>
    <circle id="Ellipse_60" data-name="Ellipse 60" cx="1.5" cy="1.5" r="1.5" transform="translate(1145 1667)"/>
    <circle id="Ellipse_61" data-name="Ellipse 61" cx="1.5" cy="1.5" r="1.5" transform="translate(1210 1693)"/>
    <circle id="Ellipse_62" data-name="Ellipse 62" cx="1.5" cy="1.5" r="1.5" transform="translate(1236 1628)"/>
  </g>
</svg>
